# Blender 4.5.2 LTS
# www.blender.org
mtllib car.mtl
o Cube
v 0.678183 1.433919 -0.545698
v 0.678183 0.005973 -0.752820
v 0.678183 1.433919 0.445853
v 0.678183 0.005973 0.786721
v 0.000000 1.433919 -0.545698
v 0.000000 0.005973 -0.752820
v 0.000000 1.433919 0.445853
v 0.000000 0.005973 0.786721
v 0.678183 0.749431 -0.752820
v 0.000000 0.749431 0.786721
v 0.678183 0.749431 0.786721
v 0.000000 0.749431 -0.752820
v 0.678183 0.157678 1.707903
v 0.000000 0.157678 1.707903
v 0.000000 0.656101 1.707903
v 0.678183 0.656101 1.707903
v 0.678183 0.157678 -1.660342
v 0.000000 0.157678 -1.660342
v 0.678183 0.570450 -1.660342
v 0.000000 0.570450 -1.660342
v 0.839564 0.005973 -0.752820
v 0.839564 0.005973 0.786721
v 0.839564 0.749431 -0.752820
v 0.839564 0.749431 0.786721
v 0.839564 0.157678 1.707903
v 0.839564 0.656101 1.707903
v 0.839564 0.157678 -1.660342
v 0.839564 0.570450 -1.660342
v 0.678183 0.005973 1.137147
v 0.000000 0.005973 1.137147
v 0.000000 0.749431 1.137147
v 0.678183 0.749431 1.137147
v 0.839564 0.005973 1.137147
v 0.839564 0.749431 1.137147
v 0.000000 0.749431 -1.365945
v 0.000000 0.005973 -1.365945
v 0.678183 0.749431 -1.365945
v 0.678183 0.005973 -1.365945
v 0.839564 0.749431 -1.365945
v 0.839564 0.005973 -1.365945
v 0.000000 0.005973 -0.002156
v 0.678183 1.433919 -0.002156
v 0.000000 1.433919 -0.002156
v 0.678183 0.005973 -0.002156
v 0.678183 0.749431 -0.002156
v 0.839564 0.005973 -0.002156
v 0.839564 0.749431 -0.002156
v 0.041170 0.005973 -0.752820
v 0.041170 1.433919 0.445853
v 0.041170 0.005973 0.786721
v 0.041170 1.433919 -0.545698
v 0.041170 0.749431 -0.752820
v 0.041170 0.749431 0.786721
v 0.041170 0.157678 1.707903
v 0.041170 0.656101 1.707903
v 0.041170 0.157678 -1.660342
v 0.041170 0.570450 -1.660342
v 0.041170 0.749431 1.137147
v 0.041170 0.005973 1.137147
v 0.041170 0.005973 -1.365945
v 0.041170 0.749431 -1.365945
v 0.041170 0.005973 -0.002156
v 0.041170 1.433919 -0.002156
v 0.000000 1.379358 0.473024
v 0.678183 1.379358 -0.562207
v 0.678183 1.379358 0.473024
v 0.000000 1.379358 -0.562207
v 0.678183 1.379358 -0.002156
v 0.041170 1.379358 -0.562207
v 0.041170 1.379358 0.473024
v 0.634760 0.005973 0.786721
v 0.634760 1.433919 -0.545698
v 0.634760 0.749431 -0.752820
v 0.634760 0.157678 1.707903
v 0.634760 0.570450 -1.660342
v 0.634760 0.749431 1.137147
v 0.634760 0.005973 -1.365945
v 0.634760 1.433919 -0.002156
v 0.634760 0.005973 -0.752820
v 0.634760 1.433919 0.445853
v 0.634760 0.749431 0.786721
v 0.634760 0.656101 1.707903
v 0.634760 0.157678 -1.660342
v 0.634760 0.005973 1.137147
v 0.634760 0.749431 -1.365945
v 0.634760 0.005973 -0.002156
v 0.634760 1.379358 0.473024
v 0.634760 1.379358 -0.562207
v -0.678183 1.433919 -0.545698
v -0.678183 0.005973 -0.752820
v -0.678183 1.433919 0.445853
v -0.678183 0.005973 0.786721
v -0.678183 0.749431 -0.752820
v -0.678183 0.749431 0.786721
v -0.678183 0.157678 1.707903
v -0.678183 0.656101 1.707903
v -0.678183 0.157678 -1.660342
v -0.678183 0.570450 -1.660342
v -0.839564 0.005973 -0.752820
v -0.839564 0.005973 0.786721
v -0.839564 0.749431 -0.752820
v -0.839564 0.749431 0.786721
v -0.839564 0.157678 1.707903
v -0.839564 0.656101 1.707903
v -0.839564 0.157678 -1.660342
v -0.839564 0.570450 -1.660342
v -0.678183 0.005973 1.137147
v -0.678183 0.749431 1.137147
v -0.839564 0.005973 1.137147
v -0.839564 0.749431 1.137147
v -0.678183 0.749431 -1.365945
v -0.678183 0.005973 -1.365945
v -0.839564 0.749431 -1.365945
v -0.839564 0.005973 -1.365945
v -0.678183 1.433919 -0.002156
v -0.678183 0.005973 -0.002156
v -0.678183 0.749431 -0.002156
v -0.839564 0.005973 -0.002156
v -0.839564 0.749431 -0.002156
v -0.041170 0.005973 -0.752820
v -0.041170 1.433919 0.445853
v -0.041170 0.005973 0.786721
v -0.041170 1.433919 -0.545698
v -0.041170 0.749431 -0.752820
v -0.041170 0.749431 0.786721
v -0.041170 0.157678 1.707903
v -0.041170 0.656101 1.707903
v -0.041170 0.157678 -1.660342
v -0.041170 0.570450 -1.660342
v -0.041170 0.749431 1.137147
v -0.041170 0.005973 1.137147
v -0.041170 0.005973 -1.365945
v -0.041170 0.749431 -1.365945
v -0.041170 0.005973 -0.002156
v -0.041170 1.433919 -0.002156
v -0.678183 1.379358 -0.562207
v -0.678183 1.379358 0.473024
v -0.678183 1.379358 -0.002156
v -0.041170 1.379358 -0.562207
v -0.041170 1.379358 0.473024
v -0.634760 0.005973 0.786721
v -0.634760 1.433919 -0.545698
v -0.634760 0.749431 -0.752820
v -0.634760 0.157678 1.707903
v -0.634760 0.570450 -1.660342
v -0.634760 0.749431 1.137147
v -0.634760 0.005973 -1.365945
v -0.634760 1.433919 -0.002156
v -0.634760 0.005973 -0.752820
v -0.634760 1.433919 0.445853
v -0.634760 0.749431 0.786721
v -0.634760 0.656101 1.707903
v -0.634760 0.157678 -1.660342
v -0.634760 0.005973 1.137147
v -0.634760 0.749431 -1.365945
v -0.634760 0.005973 -0.002156
v -0.634760 1.379358 0.473024
v -0.634760 1.379358 -0.562207
vn -0.0000 1.0000 -0.0000
vn -0.0000 0.4458 0.8951
vn -0.0000 -1.0000 -0.0000
vn 1.0000 -0.0000 -0.0000
vn -0.0000 0.2896 -0.9571
vn -0.0000 0.9869 0.1614
vn -0.0000 -0.9664 0.2569
vn -0.0000 -0.0000 1.0000
vn -0.0000 -0.0000 -1.0000
vn -0.0000 0.8545 -0.5195
vn -0.0000 -0.8889 -0.4581
vn -1.0000 -0.0000 -0.0000
vt 0.464346 0.401772
vt 0.093010 0.377662
vt 0.100049 0.376969
vt 0.100049 0.376969
vt 0.100049 0.376969
vt 0.100049 0.550591
vt 0.100049 0.550591
vt 0.403761 0.452765
vt 0.403761 0.452765
vt 0.414739 0.401772
vt 0.094560 0.526481
vt 0.414739 0.401772
s 0
usemtl Material
f 63/1/1 43/1/1 7/1/1 49/1/1
f 70/2/2 49/2/2 7/2/2 64/2/2
f 86/3/3 44/4/3 4/4/3 71/4/3
f 68/2/4 42/2/4 3/2/4 66/2/4
f 88/2/5 72/2/5 1/2/5 65/2/5
f 32/4/6 16/4/6 26/4/6 34/4/6
f 84/3/7 29/4/7 13/4/7 74/4/7
f 54/1/8 55/1/8 15/1/8 14/1/8
f 58/1/6 31/1/6 15/1/6 55/1/6
f 17/4/9 19/4/9 28/4/9 27/4/9
f 83/5/9 75/4/9 19/4/9 17/4/9
f 85/3/10 37/4/10 19/4/10 75/4/10
f 60/1/11 36/1/11 18/1/11 56/1/11
f 16/4/8 13/4/8 25/4/8 26/4/8
f 46/4/4 47/4/4 24/4/4 22/4/4
f 33/4/4 34/4/4 26/4/4 25/4/4
f 39/4/4 40/4/4 27/4/4 28/4/4
f 37/4/1 9/4/1 23/4/1 39/4/1
f 45/4/1 11/4/1 24/4/1 47/4/1
f 38/4/11 17/4/11 27/4/11 40/4/11
f 29/4/3 4/4/3 22/4/3 33/4/3
f 44/4/3 2/4/3 21/4/3 46/4/3
f 13/4/7 29/4/7 33/4/7 25/4/7
f 22/4/4 24/4/4 34/4/4 33/4/4
f 53/1/1 10/1/1 31/1/1 58/1/1
f 71/4/3 4/4/3 29/4/3 84/3/3
f 11/4/1 32/4/1 34/4/1 24/4/1
f 2/4/3 38/4/3 40/4/3 21/4/3
f 19/4/10 37/4/10 39/4/10 28/4/10
f 23/4/4 21/4/4 40/4/4 39/4/4
f 48/1/3 6/1/3 36/1/3 60/1/3
f 73/4/1 9/4/1 37/4/1 85/3/1
f 4/4/3 44/4/3 46/4/3 22/4/3
f 9/4/1 45/4/1 47/4/1 23/4/1
f 21/4/4 23/4/4 47/4/4 46/4/4
f 65/2/4 1/2/4 42/2/4 68/2/4
f 79/3/3 2/4/3 44/4/3 86/3/3
f 51/1/1 5/1/1 43/1/1 63/1/1
f 72/6/1 51/6/1 63/6/1 78/7/1
f 6/1/3 48/1/3 62/1/3 41/1/3
f 12/1/1 52/1/1 61/1/1 35/1/1
f 79/3/3 48/4/3 60/4/3 77/3/3
f 8/1/3 50/1/3 59/1/3 30/1/3
f 81/4/1 53/4/1 58/4/1 76/3/1
f 77/3/11 60/4/11 56/4/11 83/5/11
f 35/1/10 61/1/10 57/1/10 20/1/10
f 18/1/9 20/1/9 57/1/9 56/1/9
f 76/3/6 58/4/6 55/4/6 82/4/6
f 74/4/8 82/4/8 55/4/8 54/4/8
f 30/1/7 59/1/7 54/1/7 14/1/7
f 67/2/5 5/2/5 51/2/5 69/2/5
f 41/1/3 62/1/3 50/1/3 8/1/3
f 87/2/2 80/2/2 49/2/2 70/2/2
f 78/7/1 63/6/1 49/6/1 80/6/1
f 81/8/2 87/8/2 70/8/2 53/9/2
f 12/10/5 67/10/5 69/10/5 52/10/5
f 9/10/4 65/10/4 68/10/4 45/10/4
f 73/11/5 88/11/5 65/11/5 9/11/5
f 45/10/4 68/10/4 66/10/4 11/10/4
f 53/9/2 70/8/2 64/8/2 10/8/2
f 52/10/5 69/10/5 88/12/5 73/10/5
f 11/11/2 66/11/2 87/11/2 81/11/2
f 42/6/1 78/7/1 80/6/1 3/6/1
f 66/2/2 3/2/2 80/2/2 87/2/2
f 13/4/8 16/4/8 82/4/8 74/4/8
f 32/4/6 76/3/6 82/4/6 16/4/6
f 38/4/11 77/3/11 83/5/11 17/4/11
f 11/4/1 81/4/1 76/3/1 32/4/1
f 2/4/3 79/3/3 77/3/3 38/4/3
f 1/6/1 72/6/1 78/7/1 42/6/1
f 48/4/3 79/3/3 86/3/3 62/4/3
f 52/4/1 73/4/1 85/3/1 61/4/1
f 50/4/3 71/4/3 84/3/3 59/4/3
f 61/4/10 85/3/10 75/4/10 57/4/10
f 56/4/9 57/4/9 75/4/9 83/5/9
f 59/4/7 84/3/7 74/4/7 54/4/7
f 69/2/5 51/2/5 72/2/5 88/2/5
f 62/4/3 86/3/3 71/4/3 50/4/3
f 135/1/1 121/1/1 7/1/1 43/1/1
f 140/2/2 64/2/2 7/2/2 121/2/2
f 156/3/3 141/4/3 92/4/3 116/4/3
f 138/2/12 137/2/12 91/2/12 115/2/12
f 158/2/5 136/2/5 89/2/5 142/2/5
f 108/4/6 110/4/6 104/4/6 96/4/6
f 154/3/7 144/4/7 95/4/7 107/4/7
f 126/1/8 14/1/8 15/1/8 127/1/8
f 130/1/6 127/1/6 15/1/6 31/1/6
f 97/4/9 105/4/9 106/4/9 98/4/9
f 153/5/9 97/4/9 98/4/9 145/4/9
f 155/3/10 145/4/10 98/4/10 111/4/10
f 132/1/11 128/1/11 18/1/11 36/1/11
f 96/4/8 104/4/8 103/4/8 95/4/8
f 118/4/12 100/4/12 102/4/12 119/4/12
f 109/4/12 103/4/12 104/4/12 110/4/12
f 113/4/12 106/4/12 105/4/12 114/4/12
f 111/4/1 113/4/1 101/4/1 93/4/1
f 117/4/1 119/4/1 102/4/1 94/4/1
f 112/4/11 114/4/11 105/4/11 97/4/11
f 107/4/3 109/4/3 100/4/3 92/4/3
f 116/4/3 118/4/3 99/4/3 90/4/3
f 95/4/7 103/4/7 109/4/7 107/4/7
f 100/4/12 109/4/12 110/4/12 102/4/12
f 125/1/1 130/1/1 31/1/1 10/1/1
f 141/4/3 154/3/3 107/4/3 92/4/3
f 94/4/1 102/4/1 110/4/1 108/4/1
f 90/4/3 99/4/3 114/4/3 112/4/3
f 98/4/10 106/4/10 113/4/10 111/4/10
f 101/4/12 113/4/12 114/4/12 99/4/12
f 120/1/3 132/1/3 36/1/3 6/1/3
f 143/4/1 155/3/1 111/4/1 93/4/1
f 92/4/3 100/4/3 118/4/3 116/4/3
f 93/4/1 101/4/1 119/4/1 117/4/1
f 99/4/12 118/4/12 119/4/12 101/4/12
f 136/2/12 138/2/12 115/2/12 89/2/12
f 149/3/3 156/3/3 116/4/3 90/4/3
f 123/1/1 135/1/1 43/1/1 5/1/1
f 142/6/1 148/7/1 135/6/1 123/6/1
f 6/1/3 41/1/3 134/1/3 120/1/3
f 12/1/1 35/1/1 133/1/1 124/1/1
f 149/3/3 147/3/3 132/4/3 120/4/3
f 8/1/3 30/1/3 131/1/3 122/1/3
f 151/4/1 146/3/1 130/4/1 125/4/1
f 147/3/11 153/5/11 128/4/11 132/4/11
f 35/1/10 20/1/10 129/1/10 133/1/10
f 18/1/9 128/1/9 129/1/9 20/1/9
f 146/3/6 152/4/6 127/4/6 130/4/6
f 144/4/8 126/4/8 127/4/8 152/4/8
f 30/1/7 14/1/7 126/1/7 131/1/7
f 67/2/5 139/2/5 123/2/5 5/2/5
f 41/1/3 8/1/3 122/1/3 134/1/3
f 157/2/2 140/2/2 121/2/2 150/2/2
f 148/7/1 150/6/1 121/6/1 135/6/1
f 151/8/2 125/9/2 140/8/2 157/8/2
f 12/10/5 124/10/5 139/10/5 67/10/5
f 93/10/12 117/10/12 138/10/12 136/10/12
f 143/11/5 93/11/5 136/11/5 158/11/5
f 117/10/12 94/10/12 137/10/12 138/10/12
f 125/9/2 10/8/2 64/8/2 140/8/2
f 124/10/5 143/10/5 158/12/5 139/10/5
f 94/11/2 151/11/2 157/11/2 137/11/2
f 115/6/1 91/6/1 150/6/1 148/7/1
f 137/2/2 157/2/2 150/2/2 91/2/2
f 95/4/8 144/4/8 152/4/8 96/4/8
f 108/4/6 96/4/6 152/4/6 146/3/6
f 112/4/11 97/4/11 153/5/11 147/3/11
f 94/4/1 108/4/1 146/3/1 151/4/1
f 90/4/3 112/4/3 147/3/3 149/3/3
f 89/6/1 115/6/1 148/7/1 142/6/1
f 120/4/3 134/4/3 156/3/3 149/3/3
f 124/4/1 133/4/1 155/3/1 143/4/1
f 122/4/3 131/4/3 154/3/3 141/4/3
f 133/4/10 129/4/10 145/4/10 155/3/10
f 128/4/9 153/5/9 145/4/9 129/4/9
f 131/4/7 126/4/7 144/4/7 154/3/7
f 139/2/5 158/2/5 142/2/5 123/2/5
f 134/4/3 122/4/3 141/4/3 156/3/3
